<mxfile host="app.diagrams.net" modified="2024-01-18T23:53:45.349Z" agent="Mozilla/5.0 (Windows NT 10.0; Win64; x64) AppleWebKit/537.36 (KHTML, like Gecko) Chrome/120.0.0.0 Safari/537.36" etag="osI-YtvYRjYowT0ELK5E" version="22.1.18" type="device">
  <diagram name="Seite-1" id="v-0rQfQ2LvDRAQXwiMzk">
    <mxGraphModel dx="1875" dy="565" grid="1" gridSize="10" guides="1" tooltips="1" connect="1" arrows="1" fold="1" page="1" pageScale="1" pageWidth="827" pageHeight="1169" math="0" shadow="0">
      <root>
        <mxCell id="0" />
        <mxCell id="1" parent="0" />
        <mxCell id="Z3iu_IyFMHgG_eRCjMrK-93" value="" style="rounded=1;whiteSpace=wrap;html=1;" vertex="1" parent="1">
          <mxGeometry y="930" width="800" height="800" as="geometry" />
        </mxCell>
        <mxCell id="Z3iu_IyFMHgG_eRCjMrK-8" value="" style="whiteSpace=wrap;html=1;" vertex="1" parent="1">
          <mxGeometry x="72.5" y="10" width="655" height="360" as="geometry" />
        </mxCell>
        <mxCell id="Z3iu_IyFMHgG_eRCjMrK-4" value="" style="rounded=0;whiteSpace=wrap;html=1;" vertex="1" parent="1">
          <mxGeometry x="232.5" y="230" width="480" height="80" as="geometry" />
        </mxCell>
        <mxCell id="Z3iu_IyFMHgG_eRCjMrK-3" value="" style="rounded=0;whiteSpace=wrap;html=1;" vertex="1" parent="1">
          <mxGeometry x="232.5" y="130" width="480" height="80" as="geometry" />
        </mxCell>
        <mxCell id="Z3iu_IyFMHgG_eRCjMrK-2" value="" style="rounded=0;whiteSpace=wrap;html=1;" vertex="1" parent="1">
          <mxGeometry x="232.5" y="20" width="480" height="80" as="geometry" />
        </mxCell>
        <mxCell id="HoG79e80AVVmSlKtTYW3-66" value="" style="rounded=1;whiteSpace=wrap;html=1;" parent="1" vertex="1">
          <mxGeometry x="20" y="430" width="760" height="420" as="geometry" />
        </mxCell>
        <mxCell id="HoG79e80AVVmSlKtTYW3-59" style="edgeStyle=orthogonalEdgeStyle;rounded=0;orthogonalLoop=1;jettySize=auto;html=1;exitX=0.25;exitY=1;exitDx=0;exitDy=0;entryX=0.5;entryY=0;entryDx=0;entryDy=0;" parent="1" source="HoG79e80AVVmSlKtTYW3-1" target="HoG79e80AVVmSlKtTYW3-2" edge="1">
          <mxGeometry relative="1" as="geometry" />
        </mxCell>
        <mxCell id="HoG79e80AVVmSlKtTYW3-60" style="edgeStyle=orthogonalEdgeStyle;rounded=0;orthogonalLoop=1;jettySize=auto;html=1;exitX=0.75;exitY=1;exitDx=0;exitDy=0;entryX=0.5;entryY=0;entryDx=0;entryDy=0;" parent="1" source="HoG79e80AVVmSlKtTYW3-1" target="HoG79e80AVVmSlKtTYW3-55" edge="1">
          <mxGeometry relative="1" as="geometry" />
        </mxCell>
        <mxCell id="HoG79e80AVVmSlKtTYW3-1" value="Task" style="whiteSpace=wrap;html=1;" parent="1" vertex="1">
          <mxGeometry x="382.5" y="30" width="280" height="60" as="geometry" />
        </mxCell>
        <mxCell id="HoG79e80AVVmSlKtTYW3-61" style="edgeStyle=orthogonalEdgeStyle;rounded=0;orthogonalLoop=1;jettySize=auto;html=1;exitX=0.5;exitY=1;exitDx=0;exitDy=0;entryX=0.5;entryY=0;entryDx=0;entryDy=0;" parent="1" source="HoG79e80AVVmSlKtTYW3-2" target="HoG79e80AVVmSlKtTYW3-3" edge="1">
          <mxGeometry relative="1" as="geometry" />
        </mxCell>
        <mxCell id="Z3iu_IyFMHgG_eRCjMrK-1" style="edgeStyle=orthogonalEdgeStyle;rounded=0;orthogonalLoop=1;jettySize=auto;html=1;exitX=1;exitY=0.5;exitDx=0;exitDy=0;entryX=0;entryY=0.5;entryDx=0;entryDy=0;" edge="1" parent="1" source="HoG79e80AVVmSlKtTYW3-2" target="HoG79e80AVVmSlKtTYW3-55">
          <mxGeometry relative="1" as="geometry" />
        </mxCell>
        <mxCell id="HoG79e80AVVmSlKtTYW3-2" value="Comm service" style="whiteSpace=wrap;html=1;" parent="1" vertex="1">
          <mxGeometry x="382.5" y="140" width="120" height="60" as="geometry" />
        </mxCell>
        <mxCell id="HoG79e80AVVmSlKtTYW3-3" value="UART Driver" style="whiteSpace=wrap;html=1;" parent="1" vertex="1">
          <mxGeometry x="382.5" y="240" width="120" height="60" as="geometry" />
        </mxCell>
        <mxCell id="HoG79e80AVVmSlKtTYW3-25" style="edgeStyle=orthogonalEdgeStyle;rounded=0;orthogonalLoop=1;jettySize=auto;html=1;exitX=0.5;exitY=0;exitDx=0;exitDy=0;entryX=0;entryY=0.5;entryDx=0;entryDy=0;" parent="1" source="HoG79e80AVVmSlKtTYW3-4" target="HoG79e80AVVmSlKtTYW3-5" edge="1">
          <mxGeometry relative="1" as="geometry" />
        </mxCell>
        <mxCell id="HoG79e80AVVmSlKtTYW3-4" value="Idle" style="ellipse;whiteSpace=wrap;html=1;" parent="1" vertex="1">
          <mxGeometry x="227" y="580" width="120" height="80" as="geometry" />
        </mxCell>
        <mxCell id="HoG79e80AVVmSlKtTYW3-40" style="edgeStyle=orthogonalEdgeStyle;rounded=0;orthogonalLoop=1;jettySize=auto;html=1;" parent="1" target="HoG79e80AVVmSlKtTYW3-7" edge="1">
          <mxGeometry relative="1" as="geometry">
            <mxPoint x="530" y="490" as="sourcePoint" />
          </mxGeometry>
        </mxCell>
        <mxCell id="HoG79e80AVVmSlKtTYW3-43" style="edgeStyle=orthogonalEdgeStyle;rounded=0;orthogonalLoop=1;jettySize=auto;html=1;exitX=0.5;exitY=1;exitDx=0;exitDy=0;entryX=0.5;entryY=0;entryDx=0;entryDy=0;" parent="1" target="HoG79e80AVVmSlKtTYW3-23" edge="1">
          <mxGeometry relative="1" as="geometry">
            <mxPoint x="470" y="530" as="sourcePoint" />
          </mxGeometry>
        </mxCell>
        <mxCell id="HoG79e80AVVmSlKtTYW3-5" value="Hello transaction" style="ellipse;whiteSpace=wrap;html=1;" parent="1" vertex="1">
          <mxGeometry x="410" y="450" width="120" height="80" as="geometry" />
        </mxCell>
        <mxCell id="HoG79e80AVVmSlKtTYW3-44" style="edgeStyle=orthogonalEdgeStyle;rounded=0;orthogonalLoop=1;jettySize=auto;html=1;" parent="1" source="HoG79e80AVVmSlKtTYW3-7" edge="1">
          <mxGeometry relative="1" as="geometry">
            <mxPoint x="530" y="620" as="targetPoint" />
          </mxGeometry>
        </mxCell>
        <mxCell id="HoG79e80AVVmSlKtTYW3-46" style="edgeStyle=orthogonalEdgeStyle;rounded=0;orthogonalLoop=1;jettySize=auto;html=1;exitX=0.5;exitY=1;exitDx=0;exitDy=0;entryX=1;entryY=0.5;entryDx=0;entryDy=0;" parent="1" source="HoG79e80AVVmSlKtTYW3-7" target="HoG79e80AVVmSlKtTYW3-9" edge="1">
          <mxGeometry relative="1" as="geometry" />
        </mxCell>
        <mxCell id="HoG79e80AVVmSlKtTYW3-7" value="DataReadout transaction" style="ellipse;whiteSpace=wrap;html=1;" parent="1" vertex="1">
          <mxGeometry x="593" y="580" width="120" height="80" as="geometry" />
        </mxCell>
        <mxCell id="HoG79e80AVVmSlKtTYW3-47" style="edgeStyle=orthogonalEdgeStyle;rounded=0;orthogonalLoop=1;jettySize=auto;html=1;entryX=0.5;entryY=1;entryDx=0;entryDy=0;" parent="1" source="HoG79e80AVVmSlKtTYW3-9" target="HoG79e80AVVmSlKtTYW3-23" edge="1">
          <mxGeometry relative="1" as="geometry" />
        </mxCell>
        <mxCell id="HoG79e80AVVmSlKtTYW3-48" style="edgeStyle=orthogonalEdgeStyle;rounded=0;orthogonalLoop=1;jettySize=auto;html=1;exitX=0;exitY=0.5;exitDx=0;exitDy=0;entryX=0.5;entryY=1;entryDx=0;entryDy=0;" parent="1" source="HoG79e80AVVmSlKtTYW3-9" target="HoG79e80AVVmSlKtTYW3-4" edge="1">
          <mxGeometry relative="1" as="geometry" />
        </mxCell>
        <mxCell id="HoG79e80AVVmSlKtTYW3-9" value="Parse and save data" style="ellipse;whiteSpace=wrap;html=1;" parent="1" vertex="1">
          <mxGeometry x="410" y="740" width="120" height="80" as="geometry" />
        </mxCell>
        <mxCell id="HoG79e80AVVmSlKtTYW3-49" style="edgeStyle=orthogonalEdgeStyle;rounded=0;orthogonalLoop=1;jettySize=auto;html=1;entryX=1;entryY=0.5;entryDx=0;entryDy=0;" parent="1" source="HoG79e80AVVmSlKtTYW3-23" target="HoG79e80AVVmSlKtTYW3-4" edge="1">
          <mxGeometry relative="1" as="geometry" />
        </mxCell>
        <mxCell id="HoG79e80AVVmSlKtTYW3-23" value="Handle error" style="ellipse;whiteSpace=wrap;html=1;" parent="1" vertex="1">
          <mxGeometry x="410" y="580" width="120" height="80" as="geometry" />
        </mxCell>
        <mxCell id="HoG79e80AVVmSlKtTYW3-33" value="Error" style="text;html=1;align=center;verticalAlign=middle;resizable=0;points=[];autosize=1;strokeColor=none;fillColor=none;" parent="1" vertex="1">
          <mxGeometry x="480" y="540" width="50" height="30" as="geometry" />
        </mxCell>
        <mxCell id="HoG79e80AVVmSlKtTYW3-34" value="Error" style="text;html=1;align=center;verticalAlign=middle;resizable=0;points=[];autosize=1;strokeColor=none;fillColor=none;" parent="1" vertex="1">
          <mxGeometry x="470" y="690" width="50" height="30" as="geometry" />
        </mxCell>
        <mxCell id="HoG79e80AVVmSlKtTYW3-35" value="Success" style="text;html=1;align=center;verticalAlign=middle;resizable=0;points=[];autosize=1;strokeColor=none;fillColor=none;" parent="1" vertex="1">
          <mxGeometry x="320" y="750" width="70" height="30" as="geometry" />
        </mxCell>
        <mxCell id="HoG79e80AVVmSlKtTYW3-37" value="Received and valid" style="text;html=1;align=center;verticalAlign=middle;resizable=0;points=[];autosize=1;strokeColor=none;fillColor=none;" parent="1" vertex="1">
          <mxGeometry x="524" y="488" width="120" height="30" as="geometry" />
        </mxCell>
        <mxCell id="HoG79e80AVVmSlKtTYW3-39" value="Received and valid" style="text;html=1;align=center;verticalAlign=middle;resizable=0;points=[];autosize=1;strokeColor=none;fillColor=none;" parent="1" vertex="1">
          <mxGeometry x="530" y="750" width="120" height="30" as="geometry" />
        </mxCell>
        <mxCell id="HoG79e80AVVmSlKtTYW3-45" value="Error" style="text;html=1;align=center;verticalAlign=middle;resizable=0;points=[];autosize=1;strokeColor=none;fillColor=none;" parent="1" vertex="1">
          <mxGeometry x="543" y="620" width="50" height="30" as="geometry" />
        </mxCell>
        <mxCell id="HoG79e80AVVmSlKtTYW3-50" value="Start" style="text;html=1;align=center;verticalAlign=middle;resizable=0;points=[];autosize=1;strokeColor=none;fillColor=none;" parent="1" vertex="1">
          <mxGeometry x="280" y="530" width="50" height="30" as="geometry" />
        </mxCell>
        <mxCell id="HoG79e80AVVmSlKtTYW3-54" style="edgeStyle=orthogonalEdgeStyle;rounded=0;orthogonalLoop=1;jettySize=auto;html=1;exitX=1;exitY=0.5;exitDx=0;exitDy=0;entryX=0;entryY=0.5;entryDx=0;entryDy=0;" parent="1" source="HoG79e80AVVmSlKtTYW3-52" target="HoG79e80AVVmSlKtTYW3-4" edge="1">
          <mxGeometry relative="1" as="geometry" />
        </mxCell>
        <mxCell id="HoG79e80AVVmSlKtTYW3-52" value="Init" style="ellipse;whiteSpace=wrap;html=1;" parent="1" vertex="1">
          <mxGeometry x="80" y="580" width="120" height="80" as="geometry" />
        </mxCell>
        <mxCell id="HoG79e80AVVmSlKtTYW3-53" value="" style="endArrow=classic;html=1;rounded=0;entryX=0;entryY=0.5;entryDx=0;entryDy=0;" parent="1" target="HoG79e80AVVmSlKtTYW3-52" edge="1">
          <mxGeometry width="50" height="50" relative="1" as="geometry">
            <mxPoint x="20" y="620" as="sourcePoint" />
            <mxPoint x="237" y="630" as="targetPoint" />
            <Array as="points">
              <mxPoint x="40" y="620" />
            </Array>
          </mxGeometry>
        </mxCell>
        <mxCell id="HoG79e80AVVmSlKtTYW3-55" value="Parser" style="whiteSpace=wrap;html=1;" parent="1" vertex="1">
          <mxGeometry x="542.5" y="140" width="120" height="60" as="geometry" />
        </mxCell>
        <mxCell id="HoG79e80AVVmSlKtTYW3-65" value="Handled" style="text;html=1;align=center;verticalAlign=middle;resizable=0;points=[];autosize=1;strokeColor=none;fillColor=none;" parent="1" vertex="1">
          <mxGeometry x="345" y="618" width="70" height="30" as="geometry" />
        </mxCell>
        <mxCell id="HoG79e80AVVmSlKtTYW3-67" value="Task state machine draft" style="text;html=1;align=center;verticalAlign=middle;resizable=0;points=[];autosize=1;strokeColor=none;fillColor=none;" parent="1" vertex="1">
          <mxGeometry x="40" y="440" width="150" height="30" as="geometry" />
        </mxCell>
        <mxCell id="Z3iu_IyFMHgG_eRCjMrK-5" value="APP layer" style="text;html=1;align=center;verticalAlign=middle;resizable=0;points=[];autosize=1;strokeColor=none;fillColor=none;" vertex="1" parent="1">
          <mxGeometry x="232.5" y="20" width="80" height="30" as="geometry" />
        </mxCell>
        <mxCell id="Z3iu_IyFMHgG_eRCjMrK-6" value="RTE Runtime &lt;br&gt;Environment layer" style="text;html=1;align=center;verticalAlign=middle;resizable=0;points=[];autosize=1;strokeColor=none;fillColor=none;" vertex="1" parent="1">
          <mxGeometry x="222.5" y="130" width="120" height="40" as="geometry" />
        </mxCell>
        <mxCell id="Z3iu_IyFMHgG_eRCjMrK-7" value="DRV Driver layer" style="text;html=1;align=center;verticalAlign=middle;resizable=0;points=[];autosize=1;strokeColor=none;fillColor=none;" vertex="1" parent="1">
          <mxGeometry x="232.5" y="230" width="110" height="30" as="geometry" />
        </mxCell>
        <mxCell id="Z3iu_IyFMHgG_eRCjMrK-9" value="Architecture" style="text;html=1;align=center;verticalAlign=middle;resizable=0;points=[];autosize=1;strokeColor=none;fillColor=none;" vertex="1" parent="1">
          <mxGeometry x="82.5" y="10" width="90" height="30" as="geometry" />
        </mxCell>
        <mxCell id="Z3iu_IyFMHgG_eRCjMrK-35" value="More accurate state machine" style="text;html=1;align=center;verticalAlign=middle;resizable=0;points=[];autosize=1;strokeColor=none;fillColor=none;" vertex="1" parent="1">
          <mxGeometry x="310" y="940" width="180" height="30" as="geometry" />
        </mxCell>
        <mxCell id="Z3iu_IyFMHgG_eRCjMrK-58" style="edgeStyle=orthogonalEdgeStyle;rounded=0;orthogonalLoop=1;jettySize=auto;html=1;exitX=0.5;exitY=1;exitDx=0;exitDy=0;entryX=0.5;entryY=0;entryDx=0;entryDy=0;" edge="1" parent="1" source="Z3iu_IyFMHgG_eRCjMrK-36" target="Z3iu_IyFMHgG_eRCjMrK-48">
          <mxGeometry relative="1" as="geometry" />
        </mxCell>
        <mxCell id="Z3iu_IyFMHgG_eRCjMrK-76" style="edgeStyle=orthogonalEdgeStyle;rounded=0;orthogonalLoop=1;jettySize=auto;html=1;exitX=1;exitY=0.5;exitDx=0;exitDy=0;" edge="1" parent="1" source="Z3iu_IyFMHgG_eRCjMrK-36">
          <mxGeometry relative="1" as="geometry">
            <mxPoint x="435" y="1475" as="targetPoint" />
          </mxGeometry>
        </mxCell>
        <mxCell id="Z3iu_IyFMHgG_eRCjMrK-36" value="SleepUntilAckAndDataReadoutRequestTxDone" style="rounded=1;whiteSpace=wrap;html=1;" vertex="1" parent="1">
          <mxGeometry x="90" y="1460" width="267.5" height="30" as="geometry" />
        </mxCell>
        <mxCell id="Z3iu_IyFMHgG_eRCjMrK-37" style="edgeStyle=orthogonalEdgeStyle;rounded=0;orthogonalLoop=1;jettySize=auto;html=1;exitX=0.5;exitY=1;exitDx=0;exitDy=0;entryX=0.5;entryY=0;entryDx=0;entryDy=0;" edge="1" parent="1" source="Z3iu_IyFMHgG_eRCjMrK-38" target="Z3iu_IyFMHgG_eRCjMrK-40">
          <mxGeometry relative="1" as="geometry" />
        </mxCell>
        <mxCell id="Z3iu_IyFMHgG_eRCjMrK-63" style="edgeStyle=orthogonalEdgeStyle;rounded=0;orthogonalLoop=1;jettySize=auto;html=1;exitX=1;exitY=0.5;exitDx=0;exitDy=0;entryX=0;entryY=0.5;entryDx=0;entryDy=0;" edge="1" parent="1" source="Z3iu_IyFMHgG_eRCjMrK-38" target="Z3iu_IyFMHgG_eRCjMrK-52">
          <mxGeometry relative="1" as="geometry" />
        </mxCell>
        <mxCell id="Z3iu_IyFMHgG_eRCjMrK-38" value="Init" style="rounded=1;whiteSpace=wrap;html=1;" vertex="1" parent="1">
          <mxGeometry x="90" y="1060" width="267.5" height="30" as="geometry" />
        </mxCell>
        <mxCell id="Z3iu_IyFMHgG_eRCjMrK-39" style="edgeStyle=orthogonalEdgeStyle;rounded=0;orthogonalLoop=1;jettySize=auto;html=1;exitX=0.5;exitY=1;exitDx=0;exitDy=0;entryX=0.5;entryY=0;entryDx=0;entryDy=0;" edge="1" parent="1" source="Z3iu_IyFMHgG_eRCjMrK-40" target="Z3iu_IyFMHgG_eRCjMrK-42">
          <mxGeometry relative="1" as="geometry" />
        </mxCell>
        <mxCell id="Z3iu_IyFMHgG_eRCjMrK-65" style="edgeStyle=orthogonalEdgeStyle;rounded=0;orthogonalLoop=1;jettySize=auto;html=1;exitX=1;exitY=0.5;exitDx=0;exitDy=0;" edge="1" parent="1" source="Z3iu_IyFMHgG_eRCjMrK-40">
          <mxGeometry relative="1" as="geometry">
            <mxPoint x="435" y="1125" as="targetPoint" />
          </mxGeometry>
        </mxCell>
        <mxCell id="Z3iu_IyFMHgG_eRCjMrK-40" value="Idle" style="rounded=1;whiteSpace=wrap;html=1;" vertex="1" parent="1">
          <mxGeometry x="90" y="1110" width="267.5" height="30" as="geometry" />
        </mxCell>
        <mxCell id="Z3iu_IyFMHgG_eRCjMrK-41" style="edgeStyle=orthogonalEdgeStyle;rounded=0;orthogonalLoop=1;jettySize=auto;html=1;exitX=0.5;exitY=1;exitDx=0;exitDy=0;entryX=0.5;entryY=0;entryDx=0;entryDy=0;" edge="1" parent="1" source="Z3iu_IyFMHgG_eRCjMrK-42" target="Z3iu_IyFMHgG_eRCjMrK-43">
          <mxGeometry relative="1" as="geometry" />
        </mxCell>
        <mxCell id="Z3iu_IyFMHgG_eRCjMrK-66" style="edgeStyle=orthogonalEdgeStyle;rounded=0;orthogonalLoop=1;jettySize=auto;html=1;exitX=1;exitY=0.5;exitDx=0;exitDy=0;" edge="1" parent="1" source="Z3iu_IyFMHgG_eRCjMrK-42">
          <mxGeometry relative="1" as="geometry">
            <mxPoint x="435" y="1175" as="targetPoint" />
          </mxGeometry>
        </mxCell>
        <mxCell id="Z3iu_IyFMHgG_eRCjMrK-42" value="SendRequestId" style="rounded=1;whiteSpace=wrap;html=1;" vertex="1" parent="1">
          <mxGeometry x="90" y="1160" width="267.5" height="30" as="geometry" />
        </mxCell>
        <mxCell id="Z3iu_IyFMHgG_eRCjMrK-53" style="edgeStyle=orthogonalEdgeStyle;rounded=0;orthogonalLoop=1;jettySize=auto;html=1;exitX=0.5;exitY=1;exitDx=0;exitDy=0;entryX=0.5;entryY=0;entryDx=0;entryDy=0;" edge="1" parent="1" source="Z3iu_IyFMHgG_eRCjMrK-43" target="Z3iu_IyFMHgG_eRCjMrK-44">
          <mxGeometry relative="1" as="geometry" />
        </mxCell>
        <mxCell id="Z3iu_IyFMHgG_eRCjMrK-67" style="edgeStyle=orthogonalEdgeStyle;rounded=0;orthogonalLoop=1;jettySize=auto;html=1;exitX=1;exitY=0.5;exitDx=0;exitDy=0;" edge="1" parent="1" source="Z3iu_IyFMHgG_eRCjMrK-43">
          <mxGeometry relative="1" as="geometry">
            <mxPoint x="435" y="1225" as="targetPoint" />
          </mxGeometry>
        </mxCell>
        <mxCell id="Z3iu_IyFMHgG_eRCjMrK-43" value="SleepUntilRequestIdTxDone" style="rounded=1;whiteSpace=wrap;html=1;" vertex="1" parent="1">
          <mxGeometry x="90" y="1210" width="267.5" height="30" as="geometry" />
        </mxCell>
        <mxCell id="Z3iu_IyFMHgG_eRCjMrK-54" style="edgeStyle=orthogonalEdgeStyle;rounded=0;orthogonalLoop=1;jettySize=auto;html=1;exitX=0.5;exitY=1;exitDx=0;exitDy=0;entryX=0.5;entryY=0;entryDx=0;entryDy=0;" edge="1" parent="1" source="Z3iu_IyFMHgG_eRCjMrK-44" target="Z3iu_IyFMHgG_eRCjMrK-45">
          <mxGeometry relative="1" as="geometry" />
        </mxCell>
        <mxCell id="Z3iu_IyFMHgG_eRCjMrK-69" style="edgeStyle=orthogonalEdgeStyle;rounded=0;orthogonalLoop=1;jettySize=auto;html=1;exitX=1;exitY=0.5;exitDx=0;exitDy=0;" edge="1" parent="1" source="Z3iu_IyFMHgG_eRCjMrK-44">
          <mxGeometry relative="1" as="geometry">
            <mxPoint x="435" y="1275" as="targetPoint" />
          </mxGeometry>
        </mxCell>
        <mxCell id="Z3iu_IyFMHgG_eRCjMrK-44" value="StartListeningToMeterDeviceIdReply" style="rounded=1;whiteSpace=wrap;html=1;" vertex="1" parent="1">
          <mxGeometry x="90" y="1260" width="267.5" height="30" as="geometry" />
        </mxCell>
        <mxCell id="Z3iu_IyFMHgG_eRCjMrK-55" style="edgeStyle=orthogonalEdgeStyle;rounded=0;orthogonalLoop=1;jettySize=auto;html=1;exitX=0.5;exitY=1;exitDx=0;exitDy=0;entryX=0.5;entryY=0;entryDx=0;entryDy=0;" edge="1" parent="1" source="Z3iu_IyFMHgG_eRCjMrK-45" target="Z3iu_IyFMHgG_eRCjMrK-46">
          <mxGeometry relative="1" as="geometry" />
        </mxCell>
        <mxCell id="Z3iu_IyFMHgG_eRCjMrK-70" style="edgeStyle=orthogonalEdgeStyle;rounded=0;orthogonalLoop=1;jettySize=auto;html=1;exitX=1;exitY=0.5;exitDx=0;exitDy=0;" edge="1" parent="1" source="Z3iu_IyFMHgG_eRCjMrK-45">
          <mxGeometry relative="1" as="geometry">
            <mxPoint x="435" y="1325" as="targetPoint" />
          </mxGeometry>
        </mxCell>
        <mxCell id="Z3iu_IyFMHgG_eRCjMrK-45" value="SleepUntilMeterDeviceIdRxDone" style="rounded=1;whiteSpace=wrap;html=1;" vertex="1" parent="1">
          <mxGeometry x="90" y="1310" width="267.5" height="30" as="geometry" />
        </mxCell>
        <mxCell id="Z3iu_IyFMHgG_eRCjMrK-56" style="edgeStyle=orthogonalEdgeStyle;rounded=0;orthogonalLoop=1;jettySize=auto;html=1;exitX=0.5;exitY=1;exitDx=0;exitDy=0;entryX=0.5;entryY=0;entryDx=0;entryDy=0;" edge="1" parent="1" source="Z3iu_IyFMHgG_eRCjMrK-46" target="Z3iu_IyFMHgG_eRCjMrK-47">
          <mxGeometry relative="1" as="geometry" />
        </mxCell>
        <mxCell id="Z3iu_IyFMHgG_eRCjMrK-71" style="edgeStyle=orthogonalEdgeStyle;rounded=0;orthogonalLoop=1;jettySize=auto;html=1;exitX=1;exitY=0.5;exitDx=0;exitDy=0;" edge="1" parent="1" source="Z3iu_IyFMHgG_eRCjMrK-46">
          <mxGeometry relative="1" as="geometry">
            <mxPoint x="435" y="1375" as="targetPoint" />
          </mxGeometry>
        </mxCell>
        <mxCell id="Z3iu_IyFMHgG_eRCjMrK-46" value="SaveDeviceIdAndParseBaudRate" style="rounded=1;whiteSpace=wrap;html=1;" vertex="1" parent="1">
          <mxGeometry x="90" y="1360" width="267.5" height="30" as="geometry" />
        </mxCell>
        <mxCell id="Z3iu_IyFMHgG_eRCjMrK-57" style="edgeStyle=orthogonalEdgeStyle;rounded=0;orthogonalLoop=1;jettySize=auto;html=1;exitX=0.5;exitY=1;exitDx=0;exitDy=0;" edge="1" parent="1" source="Z3iu_IyFMHgG_eRCjMrK-47" target="Z3iu_IyFMHgG_eRCjMrK-36">
          <mxGeometry relative="1" as="geometry" />
        </mxCell>
        <mxCell id="Z3iu_IyFMHgG_eRCjMrK-77" style="edgeStyle=orthogonalEdgeStyle;rounded=0;orthogonalLoop=1;jettySize=auto;html=1;exitX=1;exitY=0.5;exitDx=0;exitDy=0;" edge="1" parent="1" source="Z3iu_IyFMHgG_eRCjMrK-47">
          <mxGeometry relative="1" as="geometry">
            <mxPoint x="435" y="1425" as="targetPoint" />
          </mxGeometry>
        </mxCell>
        <mxCell id="Z3iu_IyFMHgG_eRCjMrK-47" value="SendAckAndDataReadoutRequest" style="rounded=1;whiteSpace=wrap;html=1;" vertex="1" parent="1">
          <mxGeometry x="90" y="1410" width="267.5" height="30" as="geometry" />
        </mxCell>
        <mxCell id="Z3iu_IyFMHgG_eRCjMrK-59" style="edgeStyle=orthogonalEdgeStyle;rounded=0;orthogonalLoop=1;jettySize=auto;html=1;exitX=0.5;exitY=1;exitDx=0;exitDy=0;entryX=0.5;entryY=0;entryDx=0;entryDy=0;" edge="1" parent="1" source="Z3iu_IyFMHgG_eRCjMrK-48" target="Z3iu_IyFMHgG_eRCjMrK-49">
          <mxGeometry relative="1" as="geometry" />
        </mxCell>
        <mxCell id="Z3iu_IyFMHgG_eRCjMrK-75" style="edgeStyle=orthogonalEdgeStyle;rounded=0;orthogonalLoop=1;jettySize=auto;html=1;exitX=1;exitY=0.5;exitDx=0;exitDy=0;" edge="1" parent="1" source="Z3iu_IyFMHgG_eRCjMrK-48">
          <mxGeometry relative="1" as="geometry">
            <mxPoint x="435" y="1525" as="targetPoint" />
          </mxGeometry>
        </mxCell>
        <mxCell id="Z3iu_IyFMHgG_eRCjMrK-48" value="SetNewBaudRate" style="rounded=1;whiteSpace=wrap;html=1;" vertex="1" parent="1">
          <mxGeometry x="90" y="1510" width="267.5" height="30" as="geometry" />
        </mxCell>
        <mxCell id="Z3iu_IyFMHgG_eRCjMrK-60" style="edgeStyle=orthogonalEdgeStyle;rounded=0;orthogonalLoop=1;jettySize=auto;html=1;exitX=0.5;exitY=1;exitDx=0;exitDy=0;entryX=0.5;entryY=0;entryDx=0;entryDy=0;" edge="1" parent="1" source="Z3iu_IyFMHgG_eRCjMrK-49" target="Z3iu_IyFMHgG_eRCjMrK-50">
          <mxGeometry relative="1" as="geometry" />
        </mxCell>
        <mxCell id="Z3iu_IyFMHgG_eRCjMrK-74" style="edgeStyle=orthogonalEdgeStyle;rounded=0;orthogonalLoop=1;jettySize=auto;html=1;exitX=1;exitY=0.5;exitDx=0;exitDy=0;" edge="1" parent="1" source="Z3iu_IyFMHgG_eRCjMrK-49">
          <mxGeometry relative="1" as="geometry">
            <mxPoint x="435" y="1575" as="targetPoint" />
          </mxGeometry>
        </mxCell>
        <mxCell id="Z3iu_IyFMHgG_eRCjMrK-49" value="StartListeningToDataReadoutReply" style="rounded=1;whiteSpace=wrap;html=1;" vertex="1" parent="1">
          <mxGeometry x="90" y="1560" width="267.5" height="30" as="geometry" />
        </mxCell>
        <mxCell id="Z3iu_IyFMHgG_eRCjMrK-61" style="edgeStyle=orthogonalEdgeStyle;rounded=0;orthogonalLoop=1;jettySize=auto;html=1;exitX=0.5;exitY=1;exitDx=0;exitDy=0;entryX=0.5;entryY=0;entryDx=0;entryDy=0;" edge="1" parent="1" source="Z3iu_IyFMHgG_eRCjMrK-50" target="Z3iu_IyFMHgG_eRCjMrK-51">
          <mxGeometry relative="1" as="geometry" />
        </mxCell>
        <mxCell id="Z3iu_IyFMHgG_eRCjMrK-73" style="edgeStyle=orthogonalEdgeStyle;rounded=0;orthogonalLoop=1;jettySize=auto;html=1;exitX=1;exitY=0.5;exitDx=0;exitDy=0;" edge="1" parent="1" source="Z3iu_IyFMHgG_eRCjMrK-50">
          <mxGeometry relative="1" as="geometry">
            <mxPoint x="435" y="1625" as="targetPoint" />
          </mxGeometry>
        </mxCell>
        <mxCell id="Z3iu_IyFMHgG_eRCjMrK-50" value="SleepUntilDataReadoutReplyRxDone" style="rounded=1;whiteSpace=wrap;html=1;" vertex="1" parent="1">
          <mxGeometry x="90" y="1610" width="267.5" height="30" as="geometry" />
        </mxCell>
        <mxCell id="Z3iu_IyFMHgG_eRCjMrK-72" style="edgeStyle=orthogonalEdgeStyle;rounded=0;orthogonalLoop=1;jettySize=auto;html=1;exitX=1;exitY=0.5;exitDx=0;exitDy=0;" edge="1" parent="1" source="Z3iu_IyFMHgG_eRCjMrK-51">
          <mxGeometry relative="1" as="geometry">
            <mxPoint x="435" y="1380" as="targetPoint" />
          </mxGeometry>
        </mxCell>
        <mxCell id="Z3iu_IyFMHgG_eRCjMrK-51" value="ParseAndSaveData" style="rounded=1;whiteSpace=wrap;html=1;" vertex="1" parent="1">
          <mxGeometry x="90" y="1660" width="267.5" height="30" as="geometry" />
        </mxCell>
        <mxCell id="Z3iu_IyFMHgG_eRCjMrK-79" style="edgeStyle=orthogonalEdgeStyle;rounded=0;orthogonalLoop=1;jettySize=auto;html=1;exitX=0.5;exitY=0;exitDx=0;exitDy=0;entryX=0;entryY=0.5;entryDx=0;entryDy=0;" edge="1" parent="1" source="Z3iu_IyFMHgG_eRCjMrK-52" target="Z3iu_IyFMHgG_eRCjMrK-40">
          <mxGeometry relative="1" as="geometry">
            <Array as="points">
              <mxPoint x="651" y="1040" />
              <mxPoint x="70" y="1040" />
              <mxPoint x="70" y="1125" />
            </Array>
          </mxGeometry>
        </mxCell>
        <mxCell id="Z3iu_IyFMHgG_eRCjMrK-52" value="HandleError" style="rounded=1;whiteSpace=wrap;html=1;" vertex="1" parent="1">
          <mxGeometry x="517.5" y="1360" width="267.5" height="30" as="geometry" />
        </mxCell>
        <mxCell id="Z3iu_IyFMHgG_eRCjMrK-78" value="Error" style="text;html=1;align=center;verticalAlign=middle;resizable=0;points=[];autosize=1;strokeColor=none;fillColor=none;" vertex="1" parent="1">
          <mxGeometry x="430" y="1348" width="50" height="30" as="geometry" />
        </mxCell>
        <mxCell id="Z3iu_IyFMHgG_eRCjMrK-80" value="Error handled" style="text;html=1;align=center;verticalAlign=middle;resizable=0;points=[];autosize=1;strokeColor=none;fillColor=none;" vertex="1" parent="1">
          <mxGeometry x="645" y="1190" width="100" height="30" as="geometry" />
        </mxCell>
        <mxCell id="Z3iu_IyFMHgG_eRCjMrK-81" value="Next" style="text;html=1;align=center;verticalAlign=middle;resizable=0;points=[];autosize=1;strokeColor=none;fillColor=none;" vertex="1" parent="1">
          <mxGeometry x="220" y="1080" width="50" height="30" as="geometry" />
        </mxCell>
        <mxCell id="Z3iu_IyFMHgG_eRCjMrK-82" value="Next" style="text;html=1;align=center;verticalAlign=middle;resizable=0;points=[];autosize=1;strokeColor=none;fillColor=none;" vertex="1" parent="1">
          <mxGeometry x="220" y="1130" width="50" height="30" as="geometry" />
        </mxCell>
        <mxCell id="Z3iu_IyFMHgG_eRCjMrK-83" value="Next" style="text;html=1;align=center;verticalAlign=middle;resizable=0;points=[];autosize=1;strokeColor=none;fillColor=none;" vertex="1" parent="1">
          <mxGeometry x="220" y="1180" width="50" height="30" as="geometry" />
        </mxCell>
        <mxCell id="Z3iu_IyFMHgG_eRCjMrK-84" value="Next" style="text;html=1;align=center;verticalAlign=middle;resizable=0;points=[];autosize=1;strokeColor=none;fillColor=none;" vertex="1" parent="1">
          <mxGeometry x="220" y="1230" width="50" height="30" as="geometry" />
        </mxCell>
        <mxCell id="Z3iu_IyFMHgG_eRCjMrK-85" value="Next" style="text;html=1;align=center;verticalAlign=middle;resizable=0;points=[];autosize=1;strokeColor=none;fillColor=none;" vertex="1" parent="1">
          <mxGeometry x="220" y="1280" width="50" height="30" as="geometry" />
        </mxCell>
        <mxCell id="Z3iu_IyFMHgG_eRCjMrK-86" value="Next" style="text;html=1;align=center;verticalAlign=middle;resizable=0;points=[];autosize=1;strokeColor=none;fillColor=none;" vertex="1" parent="1">
          <mxGeometry x="220" y="1330" width="50" height="30" as="geometry" />
        </mxCell>
        <mxCell id="Z3iu_IyFMHgG_eRCjMrK-87" value="Next" style="text;html=1;align=center;verticalAlign=middle;resizable=0;points=[];autosize=1;strokeColor=none;fillColor=none;" vertex="1" parent="1">
          <mxGeometry x="220" y="1380" width="50" height="30" as="geometry" />
        </mxCell>
        <mxCell id="Z3iu_IyFMHgG_eRCjMrK-88" value="Next" style="text;html=1;align=center;verticalAlign=middle;resizable=0;points=[];autosize=1;strokeColor=none;fillColor=none;" vertex="1" parent="1">
          <mxGeometry x="220" y="1430" width="50" height="30" as="geometry" />
        </mxCell>
        <mxCell id="Z3iu_IyFMHgG_eRCjMrK-89" value="Next" style="text;html=1;align=center;verticalAlign=middle;resizable=0;points=[];autosize=1;strokeColor=none;fillColor=none;" vertex="1" parent="1">
          <mxGeometry x="220" y="1480" width="50" height="30" as="geometry" />
        </mxCell>
        <mxCell id="Z3iu_IyFMHgG_eRCjMrK-90" value="Next" style="text;html=1;align=center;verticalAlign=middle;resizable=0;points=[];autosize=1;strokeColor=none;fillColor=none;" vertex="1" parent="1">
          <mxGeometry x="220" y="1530" width="50" height="30" as="geometry" />
        </mxCell>
        <mxCell id="Z3iu_IyFMHgG_eRCjMrK-91" value="Next" style="text;html=1;align=center;verticalAlign=middle;resizable=0;points=[];autosize=1;strokeColor=none;fillColor=none;" vertex="1" parent="1">
          <mxGeometry x="220" y="1580" width="50" height="30" as="geometry" />
        </mxCell>
        <mxCell id="Z3iu_IyFMHgG_eRCjMrK-92" value="Next" style="text;html=1;align=center;verticalAlign=middle;resizable=0;points=[];autosize=1;strokeColor=none;fillColor=none;" vertex="1" parent="1">
          <mxGeometry x="220" y="1630" width="50" height="30" as="geometry" />
        </mxCell>
        <mxCell id="Z3iu_IyFMHgG_eRCjMrK-94" value="" style="endArrow=classic;html=1;rounded=0;entryX=0;entryY=0.5;entryDx=0;entryDy=0;" edge="1" parent="1" source="Z3iu_IyFMHgG_eRCjMrK-93" target="Z3iu_IyFMHgG_eRCjMrK-38">
          <mxGeometry width="50" height="50" relative="1" as="geometry">
            <mxPoint x="75" y="1070" as="sourcePoint" />
            <mxPoint x="75" y="1070" as="targetPoint" />
          </mxGeometry>
        </mxCell>
      </root>
    </mxGraphModel>
  </diagram>
</mxfile>
